<?xml version="1.0" encoding="utf-8"?>
<svg version="1.0" xmlns="http://www.w3.org/2000/svg" width="186.000000pt" height="186.000000pt" viewBox="0 0 186.000000 186.000000" preserveAspectRatio="xMidYMid meet" xmlns:bx="https://boxy-svg.com">
  <defs>
    <bx:export>
      <bx:file format="svg" href="#object-0" units="pt"/>
    </bx:export>
  </defs>
  <g transform="translate(0.000000,186.000000) scale(0.100000,-0.100000)" fill="#000000" stroke="none">
    <rect x="-652.39" y="4299.5" width="1590" height="1426.72" transform="matrix(0.999794, 0.020304, 0.020304, -0.999794, 796.71029, -4132.204764)" style="transform-box: fill-box; transform-origin: 50% 50%; fill: rgb(255, 255, 255);" id="object-0"/>
    <path d="M0 930 l0 -930 930 0 930 0 0 930 0 930 -930 0 -930 0 0 -930z m1028 88 l2 -478 -65 0 -65 0 0 480 0 481 63 -3 62 -3 3 -477z m-245 412 c14 0 17 -9 17 -50 l0 -50 -180 0 -180 0 0 -140 0 -140 155 0 155 0 0 -50 0 -50 -155 0 -155 0 0 -155 0 -155 180 0 180 0 0 -50 0 -50 -245 0 -245 0 0 444 0 445 23 3 c18 2 132 2 450 -2z m470 -242 c22 -103 99 -433 101 -436 2 -1 27 93 55 210 29 117 54 221 57 231 4 14 17 17 75 17 38 0 69 -3 69 -6 0 -4 -48 -171 -106 -373 -58 -201 -108 -375 -111 -386 -3 -11 -18 -45 -34 -76 -36 -72 -93 -105 -164 -94 -47 7 -48 8 -39 67 6 35 9 38 40 38 44 0 59 18 85 98 l21 67 -96 327 c-53 179 -96 329 -96 332 0 3 31 6 69 6 63 0 69 -2 74 -22z" style="fill: rgb(0, 127, 94);"/>
  </g>
</svg>